<svg width="551" height="655" viewBox="0 0 551 655" fill="none" xmlns="http://www.w3.org/2000/svg">
<path d="M222.726 369.194C222.413 374.613 221.788 380.483 220.815 386.562C213.451 434.324 187.087 502.927 157.839 544.783C151.978 553.432 145.213 561.431 137.658 568.647C114.628 589.801 78.0166 593.796 52.451 579.068C44.7333 574.623 38.157 568.441 33.2432 561.013C28.3294 553.585 25.2131 545.115 24.1414 536.273C23.0309 528.608 22.9374 520.829 23.8635 513.139C28.7612 469.754 58.3214 395.42 93.995 341.788C98.0591 335.605 102.227 329.7 106.465 324.177C126.612 297.777 147.94 279.367 167.426 277.353C171.456 276.895 175.535 277.213 179.445 278.291C211.715 287.461 225.609 312.853 222.726 369.194Z" fill="#FED81D"/>
<path d="M163.605 395.072C153.805 428.746 149.881 463.856 152.004 498.862C153.101 514.311 155.049 529.688 157.839 544.922C151.978 553.57 145.213 561.57 137.658 568.785C114.628 589.94 78.0163 593.934 52.4508 579.206C44.7157 574.747 38.1285 568.544 33.2137 561.091C28.2989 553.637 25.1923 545.139 24.1411 536.273C46.8583 560.588 70.6176 565.833 89.4444 559.685C116.573 550.931 133.628 518.697 123.138 485.663C104.763 427.654 146.237 394.481 166.037 384.929C165.377 388.194 164.474 391.633 163.605 395.072Z" fill="#FCC71F"/>
<path d="M222.726 369.194C222.414 374.613 221.788 380.483 220.816 386.562C217.412 381.549 214.614 376.15 212.479 370.479C202.44 343.698 184.378 328.623 164.335 322.092C145.38 316.185 124.982 316.87 106.466 324.038C126.612 297.638 147.94 279.228 167.427 277.214C171.456 276.756 175.536 277.074 179.445 278.152C211.715 287.461 225.609 312.853 222.726 369.194Z" fill="#FED81D"/>
<path d="M299.664 323.204C263.156 327.65 255.306 298.402 255.063 256.615C255.063 246.785 255.376 236.26 255.931 225.353C256.222 218.89 256.918 212.451 258.016 206.075C270.451 134.901 329.363 143.55 332.385 185.442C333.566 201.316 344.786 317.716 299.664 323.204Z" fill="#B25E47"/>
<path d="M298.797 212.744C296.852 240.845 276.636 255.295 255.099 256.615C255.099 246.785 255.412 236.26 255.968 225.353C256.258 218.89 256.954 212.451 258.052 206.075C269.897 200.934 300.325 189.957 298.797 212.744Z" fill="#914839"/>
<path d="M440.136 489.588C438.223 496.02 436.704 502.562 435.585 509.179C435.273 510.985 434.96 512.653 434.682 514.563C423.497 584.312 422.108 648.956 421.344 655.66C420.579 662.364 358.124 660.071 311.683 657.813C293.585 656.91 270.208 657.153 248.116 657.327C213.38 657.605 182.118 657.674 179.617 652.777C177.95 649.616 173.469 631.032 168.606 607.203C167.842 603.521 167.043 599.7 166.279 595.81C165.897 593.865 165.48 591.885 165.132 589.905C164.785 587.925 164.264 585.355 163.812 582.958C163.361 580.561 162.909 578.095 162.423 575.629C161.45 570.21 160.443 564.687 159.505 559.233C158.567 553.78 157.699 548.396 156.865 543.116C154.262 527.856 152.465 512.47 151.481 497.021C149.759 461.987 154.059 426.916 164.195 393.335C164.472 392.467 164.716 391.633 164.924 390.765C165.306 389.306 165.653 387.847 166.001 386.388C166.209 385.624 166.348 384.86 166.522 384.095C166.696 383.331 166.834 382.567 166.973 381.803C167.112 381.039 167.286 380.275 167.425 379.51C167.564 378.746 167.668 378.017 167.772 377.253C168.015 375.759 168.224 374.265 168.398 372.806C168.814 369.333 169.127 365.616 169.266 362.142C169.266 361.656 169.266 361.17 169.266 360.718C169.266 358.252 169.266 355.821 169.266 353.424C169.004 342.361 167.772 331.342 165.584 320.494C162.11 301.98 157.213 288.086 158.394 281.694C158.949 278.533 162.249 276.658 167.946 275.824C168.339 275.792 168.734 275.792 169.127 275.824C183.021 274.157 210.324 278.151 247.213 285.793C248.018 277.5 249.388 269.272 251.312 261.166C251.675 259.901 252.449 258.795 253.513 258.021C254.576 257.247 255.868 256.85 257.182 256.893C262.112 257.045 267.024 257.567 271.875 258.456C280.733 259.29 310.919 253.767 326.445 245.604C329.575 243.811 333.017 242.632 336.588 242.13C344.022 241.47 346.592 247.341 347.565 255.33V256.372C347.565 256.754 347.565 257.136 347.565 257.518C347.565 257.9 347.565 258.977 347.738 259.741C347.912 260.506 347.738 260.888 347.738 261.478V263.84C347.738 264.778 347.738 265.716 347.738 266.689V269.433C347.738 269.884 347.738 270.336 347.738 270.822C347.738 271.308 347.738 271.621 347.738 272.003C347.738 272.385 347.738 273.08 347.738 273.636C347.738 274.191 347.738 274.99 347.738 275.65C347.738 276.31 347.738 276.97 347.738 277.63V278.916C347.738 284.716 347.738 289.093 347.738 289.093C375.77 278.464 418.078 267.626 450.105 287.322C460.538 293.93 469.167 303.025 475.219 313.79C476.87 316.571 478.377 319.435 479.734 322.37C507.106 379.232 458.407 427.585 440.136 489.588Z" fill="#FED81D"/>
<path d="M476.226 313.79C449.167 317.09 418.912 334.632 390.463 368.43C386.052 373.675 381.71 379.267 377.368 385.311C331.69 449.26 252.111 432.309 221.474 385.659C218.142 380.611 215.414 375.19 213.346 369.506C203.55 342.586 185.557 327.337 165.688 320.598C162.215 302.084 157.317 288.19 158.498 281.799C159.054 278.638 162.354 276.762 168.05 275.928C168.443 275.896 168.838 275.896 169.231 275.928C183.126 274.261 210.428 278.256 247.317 285.897C248.083 277.572 249.418 269.309 251.312 261.166C251.675 259.901 252.449 258.795 253.513 258.021C254.576 257.247 255.868 256.85 257.182 256.893C262.112 257.045 267.024 257.567 271.875 258.456C280.733 259.29 310.919 253.767 326.445 245.604C329.575 243.811 333.017 242.632 336.588 242.13C344.022 241.47 346.592 247.341 347.565 255.33V256.372C347.565 256.754 347.565 257.136 347.565 257.518C347.565 257.9 347.565 258.977 347.738 259.741C347.912 260.506 347.738 260.888 347.738 261.478V263.84C347.738 264.778 347.738 265.716 347.738 266.689V269.433C347.738 269.884 347.738 270.336 347.738 270.822C347.738 271.308 347.738 271.621 347.738 272.003C347.738 272.385 347.738 273.08 347.738 273.636C347.738 274.191 347.738 274.99 347.738 275.65C347.738 276.31 347.738 276.97 347.738 277.63V278.916C347.738 284.716 347.738 289.093 347.738 289.093C375.77 278.464 418.078 267.626 450.105 287.322C460.906 293.798 469.892 302.904 476.226 313.79Z" fill="#FED81D"/>
<path d="M168.432 360.927C168.345 368.948 167.543 376.946 166.035 384.825C165.375 388.299 164.576 391.772 163.604 395.246C153.804 428.919 149.879 464.03 152.002 499.036C153.1 514.485 155.048 529.861 157.838 545.096C158.706 550.376 159.644 555.76 160.651 561.178C163.639 577.504 167.043 594.247 170.238 608.975C175.379 632.734 180.034 651.248 181.736 654.409" stroke="#FCC71F" stroke-width="1.15577" stroke-linecap="round" stroke-linejoin="round"/>
<path d="M435.412 513.347C424.991 583.201 424.261 647.879 423.567 654.583C422.872 661.287 360.417 659.655 313.941 658.057C295.843 657.327 272.431 657.848 250.374 658.057C268.506 642.947 305.951 618.145 342.007 633.742C391.922 655.521 415.473 586.779 384.975 580.631C354.477 574.482 353.053 539.851 346.974 511.75L371.915 501.676L435.412 513.347Z" fill="#FCC71F"/>
<path d="M245.581 286.488C245.285 291.903 245.285 297.33 245.581 302.745" stroke="#FCC71F" stroke-width="1.15577" stroke-linecap="round" stroke-linejoin="round"/>
<path d="M346.905 287.738C346.523 298.367 346.002 305.315 346.002 305.315" stroke="#FCC71F" stroke-width="1.15577" stroke-linecap="round" stroke-linejoin="round"/>
<path d="M269.791 304.168C283.685 308.093 304.527 308.336 316.649 304.168" stroke="#FCC71F" stroke-width="1.15577" stroke-linecap="round" stroke-linejoin="round"/>
<path d="M566.402 554.44C552.334 572.398 513.708 575.872 482.377 550.966C473.648 543.892 466.168 535.403 460.25 525.852C456.776 520.399 452.365 511.958 447.398 502.232C445.209 497.89 442.882 493.236 440.451 488.338C427.251 461.383 412.21 428.662 402.519 409.974C397.722 400.525 394.128 390.513 391.82 380.171C390.848 376.072 390.084 371.903 389.493 367.735C382.268 317.368 400.331 264.5 449.134 285.898H449.308C459.034 290.205 469.385 299.445 479.771 311.637C504.99 341.162 530.312 388.056 546.464 423.382C550.111 431.406 553.411 438.805 555.912 445.3C574.878 492.159 584.013 531.827 566.402 554.44Z" fill="#FED81D"/>
<path d="M492.276 474.791C491.199 492.367 470.531 499.627 447.397 502.023C445.209 497.681 442.881 493.027 440.45 488.129C427.25 461.174 412.21 428.453 402.518 409.765C397.721 400.317 394.127 390.304 391.82 379.962C411.723 380.379 433.259 387.639 435.239 421.645C436.733 445.057 494.811 434.601 492.276 474.791Z" fill="#FCC71F"/>
<path d="M479.875 311.533C478.166 311.609 476.462 311.771 474.769 312.019C447.779 315.492 417.663 333.486 389.597 367.596C382.372 317.229 400.434 264.361 449.238 285.759H449.412C459.138 290.24 469.489 299.479 479.875 311.533Z" fill="#FED81D"/>
<path d="M460.251 525.748C456.777 520.294 452.366 511.854 447.398 502.127C445.21 497.786 442.883 493.131 440.451 488.233C427.252 461.278 412.211 428.557 402.52 409.869C397.723 400.421 394.129 390.408 391.821 380.066C390.849 375.967 390.084 371.799 389.494 367.631" stroke="#FCC71F" stroke-width="1.15577" stroke-linecap="round" stroke-linejoin="round"/>
<path d="M566.402 554.44C552.334 572.398 513.708 575.872 482.376 550.966C490.098 548.488 498.282 547.799 506.309 548.952C538.231 553.606 569.702 540.545 545.179 503.309C525.344 473.193 539.517 435.4 546.568 423.416C550.215 431.44 553.515 438.839 556.016 445.335C574.878 492.159 584.013 531.827 566.402 554.44Z" fill="#FCC71F"/>
<path d="M361.495 78.3518C355.52 82.5895 351.838 83.2842 351.977 89.7798C352.116 96.2754 349.337 98.047 346.559 99.1238C343.78 100.201 346.871 104.89 346.003 109.544C345.134 114.199 333.359 118.541 333.359 118.541L255.065 81.7211C248.534 73.8014 251.383 69.3899 253.467 65.1522C253.671 64.7484 253.778 64.3022 253.778 63.8496C253.778 63.397 253.671 62.9508 253.467 62.547C252.39 59.5945 247.596 57.024 248.847 53.7241C250.41 49.5211 254.648 48.7916 259.545 48.6179C264.443 48.4443 263.505 34.3763 261.178 30.6595C258.851 26.9428 260.622 17.6336 268.507 18.1894C276.392 18.7452 279.449 17.1473 280.144 13.4306C280.621 12.139 281.36 10.9599 282.315 9.96715C283.269 8.97437 284.418 8.18928 285.689 7.66105C286.961 7.13281 288.328 6.8728 289.705 6.8973C291.082 6.92179 292.439 7.23027 293.691 7.8034C299.839 10.9991 305.119 7.45605 308.836 3.94773C309.043 3.72435 309.276 3.52615 309.53 3.35723C313.594 0.19627 322.07 -1.54052 325.543 3.94773C327.111 6.63717 329.373 8.85573 332.093 10.3712C334.812 11.8867 337.889 12.6435 341.001 12.5622C348.4 13.0832 350.518 19.2315 348.921 25.3797C347.323 31.5279 349.615 33.6816 354.409 36.4952C356.903 38.4758 358.739 41.1653 359.676 44.2096C360.612 47.254 360.604 50.5104 359.654 53.5504C358.692 55.3358 358.345 57.388 358.665 59.3905C358.985 61.393 359.955 63.2345 361.425 64.6311C363.753 66.9237 367.47 74.114 361.495 78.3518Z" fill="#683F1D"/>
<path d="M331.692 178.981C325.493 181.595 318.786 182.782 312.066 182.455C285.181 181.204 219.53 205.485 219.53 205.485C208.519 206.839 201.78 210.66 206.782 216.148C211.784 221.637 216.438 237.511 203.69 238.831C201.183 239.053 198.66 239.053 196.153 238.831C188.685 238.171 185.35 235.01 186.288 232.092C187.504 228.306 195.597 229.14 197.125 227.611C198.654 226.083 199.036 222.609 194.034 217.955C189.032 213.3 185.419 206.075 190.56 198.746C195.701 191.417 205.879 184.851 199.696 179.537C193.513 174.222 188.476 169.707 191.081 163.489C193.687 157.271 208.449 148.518 201.502 140.945C194.555 133.373 188.789 123.578 201.884 111.663C214.98 99.7488 228.214 102.007 226.199 91.8291C224.185 81.6515 225.852 71.856 240.094 74.2528C254.335 76.6495 256.28 75.6422 262.498 72.2033C268.716 68.7645 276.948 70.6402 284.903 77.5179C292.857 84.3956 300.395 76.6495 310.017 78.56C319.639 80.4705 310.017 89.7449 322.244 91.8291C334.471 93.9132 338.639 94.4342 340.028 106.14C341.418 117.846 349.511 117.985 351.213 121.632C354.687 129.066 349.164 134.241 347.566 138.549C345.968 142.856 349.442 145.496 352.186 150.081C356.771 157.688 347.531 172.242 331.692 178.981Z" fill="#683F1D"/>
<path d="M335.929 158.279C335.04 165.322 333.624 172.289 331.691 179.12C325.492 181.734 318.785 182.922 312.065 182.594C285.18 181.343 219.529 205.624 219.529 205.624C208.518 206.978 201.779 210.799 206.781 216.287C211.783 221.776 216.438 237.65 203.69 238.97C201.182 239.192 198.66 239.192 196.152 238.97C205.704 237.407 208.24 230.599 203.342 221.602C196.395 209.201 199 201.872 205.808 194.751C212.617 187.63 201.466 170.888 205.808 162.065C210.15 153.242 217.48 150.081 214.527 136.743C211.575 123.404 213.103 117.013 223.524 109.614C233.944 102.215 242.941 100.791 248.568 91.9334C254.195 83.0757 268.923 77.518 273.925 88.0777C278.927 98.6374 280.56 105.862 294.767 101.555C308.974 97.2479 318.283 102.528 313.281 114.616C308.279 126.704 310.641 138.201 319.464 139.695C328.287 141.189 337.631 141.328 335.929 158.279Z" fill="#683F1D"/>
<path d="M325.821 198.746C272.919 237.233 250.132 249.877 224.844 228.619C213.034 218.719 210.95 198.503 213.347 177.905C214.195 170.544 215.518 163.246 217.307 156.056C219.955 144.358 224.001 133.022 229.36 122.293C240.788 101.798 266.84 100.791 269.48 101.798C272.12 102.806 272.954 104.334 270.383 110.413C267.813 116.492 270.661 120.834 277.99 121.042C285.319 121.25 293.691 126.357 292.927 133.686C292.438 137.261 293.018 140.9 294.594 144.145C296.17 147.391 298.672 150.097 301.784 151.922C308.731 156.229 307.342 162.794 308.349 166.859C309.357 170.923 317.728 175.473 320.021 169.881C322.313 164.288 335.443 152.513 346.072 163.316C356.701 174.118 347.323 199.51 325.821 198.746Z" fill="#B25E47"/>
<path d="M262.428 171.235C264.964 176.515 274.134 177.383 282.888 173.18C291.641 168.977 296.782 161.231 294.107 155.812C291.433 150.394 282.401 149.664 273.648 153.902C264.895 158.14 259.858 165.955 262.428 171.235Z" fill="#914839"/>
<path d="M226.756 175.855C224.359 179.329 219.01 179.85 213.348 177.904C214.195 170.544 215.518 163.246 217.308 156.056L218.697 156.959C226.582 162.621 230.194 171.096 226.756 175.855Z" fill="#914839"/>
<path d="M225.747 150.29C225.747 150.977 225.95 151.648 226.332 152.22C226.714 152.791 227.256 153.236 227.891 153.499C228.526 153.762 229.224 153.831 229.898 153.697C230.572 153.563 231.191 153.232 231.676 152.746C232.162 152.26 232.493 151.641 232.627 150.967C232.761 150.294 232.692 149.595 232.429 148.96C232.166 148.326 231.721 147.783 231.15 147.402C230.579 147.02 229.907 146.816 229.22 146.816C228.299 146.816 227.415 147.182 226.764 147.834C226.112 148.485 225.747 149.368 225.747 150.29Z" fill="#683F1D"/>
<path d="M247.84 152.2C247.84 153.158 248.22 154.077 248.898 154.755C249.575 155.432 250.494 155.813 251.452 155.813C252.41 155.813 253.329 155.432 254.006 154.755C254.684 154.077 255.065 153.158 255.065 152.2C255.065 151.242 254.684 150.323 254.006 149.646C253.329 148.968 252.41 148.588 251.452 148.588C250.494 148.588 249.575 148.968 248.898 149.646C248.22 150.323 247.84 151.242 247.84 152.2Z" fill="#683F1D"/>
<path d="M323.876 182.524C324.606 174.743 333.498 164.01 343.085 172.104" stroke="#914839" stroke-width="1.15577" stroke-linecap="round" stroke-linejoin="round"/>
<path d="M324.259 180.614C330.928 169.151 344.301 184.851 328.67 187.943" stroke="#914839" stroke-width="1.15577" stroke-linecap="round" stroke-linejoin="round"/>
<path d="M236.099 173.493C232.139 171.652 230.541 168.039 230.889 167.136C231.236 166.233 243.637 157.132 241.309 143.064" stroke="#914839" stroke-width="1.15577" stroke-linecap="round" stroke-linejoin="round"/>
<path d="M251.313 125.454C250.201 132.783 268.021 139.973 270.765 135.319C273.231 131.359 253.119 114.686 251.313 125.454Z" fill="#683F1D"/>
<path d="M221.545 130.282C221.545 132.401 240.858 131.984 240.58 124.585C240.302 117.186 221.059 123.96 221.545 130.282Z" fill="#683F1D"/>
<path d="M237.94 180.892C244.573 179.124 251.046 176.8 257.288 173.945C257.288 173.945 259.268 186.172 251.453 188.43C250.07 188.827 248.624 188.946 247.195 188.782C245.766 188.617 244.384 188.172 243.129 187.472C241.873 186.771 240.768 185.829 239.877 184.7C238.987 183.571 238.329 182.277 237.94 180.892Z" fill="white" stroke="#914839" stroke-width="1.15577" stroke-linecap="round" stroke-linejoin="round"/>
<path d="M338.639 48.6179C335.686 57.7534 325.057 48.3053 324.223 61.3312C323.39 74.3571 297.338 70.7099 289.488 58.0313C282.957 47.6106 264.478 51.5357 253.605 62.547C252.529 59.5944 247.735 57.024 248.986 53.7241C250.549 49.521 254.786 48.7916 259.684 48.6179C264.582 48.4442 263.644 34.3762 261.317 30.6595C258.99 26.9428 260.761 17.6336 268.646 18.1894C276.531 18.7451 279.588 17.1473 280.283 13.4306C280.76 12.139 281.499 10.9599 282.453 9.96712C283.408 8.97434 284.556 8.18925 285.828 7.66101C287.1 7.13278 288.467 6.87277 289.844 6.89727C291.22 6.92176 292.577 7.23023 293.829 7.80337C299.978 10.9991 305.258 7.45601 308.974 3.9477C309.182 3.72432 309.415 3.52612 309.669 3.35719C312.691 11.9717 314.914 23.7124 326.62 24.7197C343.05 26.2133 341.626 39.4477 338.639 48.6179Z" fill="#683F1D"/>
<path d="M0 299.236C1.4589 289.892 27.7886 282.91 43.0029 279.992L48.8385 317.716C48.8385 317.716 6.84295 311.706 0 299.236Z" fill="#FCC71F"/>
<path d="M24.4188 319.313C21.4315 278.429 21.4315 244.076 20.5631 231.05C19.6948 218.024 20.3547 204.164 35.6732 197.842C35.6732 197.842 35.6732 185.789 53.0411 183.566C53.0411 183.566 50.8527 172.763 65.4418 173.145C65.4111 172.131 65.6162 171.123 66.0409 170.201C66.4656 169.279 67.0984 168.468 67.8894 167.831C68.6805 167.195 69.6083 166.751 70.6 166.534C71.5916 166.317 72.6201 166.333 73.6047 166.58C76.1356 166.834 78.5798 167.641 80.7646 168.943C82.9495 170.246 84.8215 172.012 86.2485 174.118C98.9271 171.409 106.013 184.539 105.388 195.411C104.763 206.283 103.929 218.163 98.7186 229.035C93.5083 239.907 86.8043 258.04 86.8043 258.04L87.2211 281C87.2211 281 77.634 354.744 24.4188 319.313Z" fill="#B25E47"/>
<path d="M20.5645 231.05C19.6614 218.024 20.3561 204.164 35.6745 197.842C35.6745 197.842 35.6745 185.789 53.0424 183.566C53.0424 183.566 50.8541 172.763 65.4431 173.145C65.4125 172.131 65.6175 171.123 66.0422 170.201C66.4669 169.279 67.0997 168.468 67.8908 167.831C68.6818 167.195 69.6096 166.751 70.6013 166.534C71.593 166.317 72.6215 166.333 73.606 166.58C76.1369 166.834 78.5812 167.641 80.766 168.943C82.9508 170.246 84.8229 172.012 86.2499 174.118C98.9284 171.409 106.014 184.539 105.389 195.411" stroke="#914839" stroke-width="1.15577" stroke-linecap="round" stroke-linejoin="round"/>
<path d="M86.3535 174.048C73.2928 180.475 63.7058 192.528 67.6309 198.363C71.556 204.199 86.3535 196.835 88.4724 194.89" stroke="#914839" stroke-width="1.15577" stroke-linecap="round" stroke-linejoin="round"/>
<path d="M64.4346 173.076C69.5676 174.462 74.496 176.518 79.0931 179.189" stroke="#914839" stroke-width="1.15577" stroke-linecap="round" stroke-linejoin="round"/>
<path d="M53.3192 183.566C59.0452 183.8 64.6566 185.244 69.784 187.804" stroke="#914839" stroke-width="1.15577" stroke-linecap="round" stroke-linejoin="round"/>
<path d="M67.2142 215.245C71.5909 211.771 75.3771 206.109 74.1613 200.69" stroke="#914839" stroke-width="1.15577" stroke-linecap="round" stroke-linejoin="round"/>
<path d="M35.6739 197.842C46.0947 193.57 56.5154 188.707 59.989 195.828C63.4625 202.949 64.852 224.832 59.989 227.785C55.126 230.737 46.9283 228.306 45.5389 222.574C44.1495 216.843 43.1074 209.027 43.1074 209.027" stroke="#914839" stroke-width="1.15577" stroke-linecap="round" stroke-linejoin="round"/>
<path d="M55.0209 229.035C59.3976 234.454 57.9734 253.628 53.1451 260.02" stroke="#914839" stroke-width="1.15577" stroke-linecap="round" stroke-linejoin="round"/>
<path d="M89.4445 559.685C80.8995 575.803 68.603 584.591 52.4509 579.103C21.675 568.682 9.44802 539.191 4.96711 510.395C0.277781 480.349 3.95977 450.997 3.82082 444.779C3.5082 432.552 0.13884 299.306 0.13884 299.306C5.48815 301.425 13.5469 301.46 23.3423 299.653C30.7936 298.179 38.1037 296.063 45.1911 293.331C60.0522 287.666 74.1851 280.25 87.2909 271.24L87.8814 270.857C87.8814 270.857 90.5213 303.891 94.1338 341.857C97.1906 374.37 101.081 410.495 104.242 432.622C109.452 468.261 106.291 528.041 89.4445 559.685Z" fill="#FED81D"/>
<path d="M89.4451 559.685C80.9001 575.803 68.6036 584.591 52.4515 579.103C21.6756 568.682 9.44858 539.191 4.96767 510.395C10.4537 519.694 16.9164 528.381 24.246 536.308C46.859 560.588 70.6877 565.833 89.4451 559.685Z" fill="#FCC71F"/>
<path d="M87.7416 270.788C87.7416 270.788 96.9118 384.652 104.102 432.552C108.026 463.019 107.065 493.917 101.254 524.081" stroke="#FCC71F" stroke-width="1.15577" stroke-linecap="round" stroke-linejoin="round"/>
<path d="M412.762 407.777L303.465 362.124C294.844 358.523 284.936 362.592 281.335 371.213L216.431 526.602C212.83 535.222 216.899 545.13 225.52 548.731L334.818 594.384C343.438 597.985 353.346 593.915 356.947 585.294L421.852 429.906C425.453 421.285 421.383 411.378 412.762 407.777Z" fill="#DDDDDD"/>
<path d="M400.498 402.631L303.476 362.106C294.856 358.505 284.948 362.575 281.347 371.195L216.442 526.584C212.841 535.205 216.911 545.112 225.532 548.713L322.553 589.239C331.174 592.839 341.082 588.77 344.683 580.149L409.587 424.761C413.188 416.14 409.119 406.232 400.498 402.631Z" fill="#F9F9F9" stroke="#DDDDDD" stroke-width="1.55503" stroke-linecap="round" stroke-linejoin="round"/>
<path d="M309.88 387.952C309.873 389.407 309.435 390.827 308.622 392.034C307.809 393.24 306.656 394.178 305.31 394.731C303.964 395.283 302.484 395.423 301.058 395.135C299.632 394.847 298.323 394.143 297.296 393.112C296.27 392.081 295.572 390.769 295.291 389.341C295.01 387.914 295.157 386.435 295.716 385.091C296.274 383.748 297.218 382.6 298.428 381.792C299.638 380.984 301.061 380.553 302.516 380.553C303.486 380.553 304.446 380.745 305.342 381.117C306.238 381.489 307.051 382.035 307.735 382.722C308.42 383.41 308.961 384.226 309.329 385.123C309.697 386.021 309.884 386.982 309.88 387.952Z" fill="#DDDDDD"/>
<path d="M322.035 395.351C322.035 396.079 321.819 396.791 321.415 397.396C321.01 398.002 320.435 398.474 319.762 398.752C319.09 399.031 318.349 399.104 317.635 398.962C316.921 398.82 316.265 398.469 315.75 397.954C315.235 397.439 314.884 396.783 314.742 396.069C314.6 395.355 314.673 394.614 314.952 393.942C315.23 393.269 315.702 392.694 316.308 392.289C316.913 391.885 317.625 391.669 318.353 391.669C318.838 391.664 319.319 391.756 319.768 391.939C320.217 392.123 320.624 392.394 320.967 392.737C321.31 393.079 321.581 393.487 321.764 393.936C321.948 394.385 322.04 394.866 322.035 395.351Z" fill="#DDDDDD"/>
<path d="M316.651 517.412C309.426 514.911 305.674 500.947 304.702 488.929L333.046 492.402C333.046 492.402 333.255 519.253 316.651 517.412Z" fill="#FCC71F"/>
<path d="M326.17 510.325C318.135 504.577 309.811 499.244 301.23 494.347C298 492.575 279.694 490.526 266.911 483.509C258.329 478.643 250.058 473.249 242.144 467.357L237.108 476.736C237.108 476.736 227.208 466.037 225.714 456.381C224.221 446.724 228.215 446.412 230.577 444.362C232.94 442.313 231.446 439.221 231.307 434.219C231.168 429.217 235.406 428.21 236.726 426.473C238.046 424.736 236.726 420.151 236.726 414.003C236.726 407.855 243.673 407.542 244.923 404.034C246.174 400.526 247.112 389.202 257.081 392.154C267.05 395.107 310.47 427.342 313.388 428.801C317.606 430.322 321.923 431.552 326.309 432.483C326.309 432.483 361.636 488.025 326.17 510.325Z" fill="#B25E47"/>
<path d="M242.144 467.357L237.108 476.736C237.108 476.736 227.208 466.037 225.714 456.381C224.221 446.724 228.215 446.412 230.577 444.362C232.94 442.313 231.446 439.221 231.307 434.219C231.168 429.217 235.406 428.21 236.726 426.473C238.046 424.736 236.726 420.151 236.726 414.003C236.726 407.855 243.673 407.542 244.923 404.034C246.174 400.526 247.112 389.202 257.081 392.154" stroke="#914839" stroke-width="1.15577" stroke-linecap="round" stroke-linejoin="round"/>
<path d="M242.143 467.357C237.176 463.224 236.133 462.529 236.133 462.529" stroke="#914839" stroke-width="1.15577" stroke-linecap="round" stroke-linejoin="round"/>
<path d="M571.925 546.972C562.824 574.761 528.922 599.631 451.6 570.419L447.397 568.786C367.088 537.003 316.617 517.412 316.617 517.412C323.57 488.026 323.57 457.423 316.617 428.037C362.781 440.958 484.842 466.003 528.193 478.716C531.041 479.55 533.785 480.453 536.355 481.426C572.724 494.938 580.713 519.948 571.925 546.972Z" fill="#FED81D"/>
<path d="M447.398 568.786C367.088 537.003 316.652 517.412 316.652 517.412" stroke="#FCC71F" stroke-width="1.15577" stroke-linecap="round" stroke-linejoin="round"/>
<path d="M316.652 428.037C358.509 439.743 462.959 461.453 514.264 474.895" stroke="#FCC71F" stroke-width="1.15577" stroke-linecap="round" stroke-linejoin="round"/>
<path d="M571.924 546.972C562.823 574.76 528.921 599.631 451.599 570.418C451.599 570.418 474.386 544.227 506.308 548.847C538.23 553.467 569.701 540.441 545.178 503.204C540.82 496.602 537.82 489.199 536.355 481.425C572.723 494.937 580.712 519.947 571.924 546.972Z" fill="#FCC71F"/>
</svg>
